<svg xmlns="http://www.w3.org/2000/svg" width="72" height="72" viewBox="0 0 72 72" fill="none">
<rect width="72" height="72" rx="36" fill="#03000A"/>
<path d="M25.3636 35.359H6.77698L26.3313 26.2792L35.3827 6.78174L35.404 25.3043C35.4112 30.8547 30.9139 35.3661 25.3565 35.3661L25.3636 35.359Z" fill="white"/>
<path d="M47.4365 35.359H66.0231L46.4687 26.2792L37.4174 6.78174L37.396 25.3043C37.3889 30.8547 41.8861 35.3661 47.4436 35.3661L47.4365 35.359Z" fill="white"/>
<path d="M47.4365 37.4226H66.0231L46.4687 46.5025L37.4174 65.9999L37.396 47.4773C37.3889 41.927 41.8861 37.4155 47.4436 37.4155L47.4365 37.4226Z" fill="white"/>
<path d="M25.3636 37.4226H6.77698L26.3313 46.5025L35.3827 65.9999L35.404 47.4773C35.4112 41.927 30.9139 37.4155 25.3565 37.4155L25.3636 37.4226Z" fill="white"/>
</svg>